<?xml version="1.0" standalone="no"?><svg xmlns="http://www.w3.org/2000/svg" viewBox="0 0 1440 320"><path fill="#CBCE91FF" fill-opacity="1" d="M0,160L6.2,170.7C12.3,181,25,203,37,208C49.2,213,62,203,74,197.3C86.2,192,98,192,111,181.3C123.1,171,135,149,148,149.3C160,149,172,171,185,165.3C196.9,160,209,128,222,106.7C233.8,85,246,75,258,112C270.8,149,283,235,295,234.7C307.7,235,320,149,332,96C344.6,43,357,21,369,58.7C381.5,96,394,192,406,224C418.5,256,431,224,443,208C455.4,192,468,192,480,192C492.3,192,505,192,517,165.3C529.2,139,542,85,554,74.7C566.2,64,578,96,591,112C603.1,128,615,128,628,112C640,96,652,64,665,74.7C676.9,85,689,139,702,144C713.8,149,726,107,738,112C750.8,117,763,171,775,186.7C787.7,203,800,181,812,186.7C824.6,192,837,224,849,229.3C861.5,235,874,213,886,192C898.5,171,911,149,923,160C935.4,171,948,213,960,240C972.3,267,985,277,997,277.3C1009.2,277,1022,267,1034,250.7C1046.2,235,1058,213,1071,186.7C1083.1,160,1095,128,1108,101.3C1120,75,1132,53,1145,42.7C1156.9,32,1169,32,1182,64C1193.8,96,1206,160,1218,165.3C1230.8,171,1243,117,1255,90.7C1267.7,64,1280,64,1292,106.7C1304.6,149,1317,235,1329,234.7C1341.5,235,1354,149,1366,117.3C1378.5,85,1391,107,1403,122.7C1415.4,139,1428,149,1434,154.7L1440,160L1440,320L1433.8,320C1427.7,320,1415,320,1403,320C1390.8,320,1378,320,1366,320C1353.8,320,1342,320,1329,320C1316.9,320,1305,320,1292,320C1280,320,1268,320,1255,320C1243.1,320,1231,320,1218,320C1206.2,320,1194,320,1182,320C1169.2,320,1157,320,1145,320C1132.3,320,1120,320,1108,320C1095.4,320,1083,320,1071,320C1058.5,320,1046,320,1034,320C1021.5,320,1009,320,997,320C984.6,320,972,320,960,320C947.7,320,935,320,923,320C910.8,320,898,320,886,320C873.8,320,862,320,849,320C836.9,320,825,320,812,320C800,320,788,320,775,320C763.1,320,751,320,738,320C726.2,320,714,320,702,320C689.2,320,677,320,665,320C652.3,320,640,320,628,320C615.4,320,603,320,591,320C578.5,320,566,320,554,320C541.5,320,529,320,517,320C504.6,320,492,320,480,320C467.7,320,455,320,443,320C430.8,320,418,320,406,320C393.8,320,382,320,369,320C356.9,320,345,320,332,320C320,320,308,320,295,320C283.1,320,271,320,258,320C246.2,320,234,320,222,320C209.2,320,197,320,185,320C172.3,320,160,320,148,320C135.4,320,123,320,111,320C98.5,320,86,320,74,320C61.5,320,49,320,37,320C24.6,320,12,320,6,320L0,320Z"></path></svg>